PathFileType	4	(X/Y/Z)	1_Data\ik.trc
DataRate	CameraRate	NumFrames	NumMarkers	Units	OrigDataRate	OrigDataStartFrame	OrigNumFrames
120.000000	120.000000	4	54	mm	120.000000	65	131
Frame#	Time	Sternum			Neck			RShoulder			LShoulder			Xiphoid			Thoracic			RAsis			LAsis			RPsis			LPsis			Lumbar			RElbow			RWrist			RRadius			RUlna			LElbow			LWrist			LUlna			LRadius			LThighSuperior			LThighInferior			LThighLateral			LPatella			LShankSuperior			LShankInferior			LShankLateral			RThighSuperior			RThighInferior			RThighLateral			RPatella			RShankSuperior			RShankInferior			RShankLateral			RHeel			RToe			RMidfootMedial			RMidfootLateral			RHindfoot			RMidfootSuperior			RToeMedial			RToeLateral			LHeel			LToe			LMidfootMedial			LMidfootLateral			LHindfoot			LMidfootSuperior			LToeMedial			LToeLateral			Oglobal			Sacral			Xglobal			Yglobal			Zglobal			
		X1	Y1	Z1	X2	Y2	Z2	X3	Y3	Z3	X4	Y4	Z4	X5	Y5	Z5	X6	Y6	Z6	X7	Y7	Z7	X8	Y8	Z8	X9	Y9	Z9	X10	Y10	Z10	X11	Y11	Z11	X12	Y12	Z12	X13	Y13	Z13	X14	Y14	Z14	X15	Y15	Z15	X16	Y16	Z16	X17	Y17	Z17	X18	Y18	Z18	X19	Y19	Z19	X20	Y20	Z20	X21	Y21	Z21	X22	Y22	Z22	X23	Y23	Z23	X24	Y24	Z24	X25	Y25	Z25	X26	Y26	Z26	X27	Y27	Z27	X28	Y28	Z28	X29	Y29	Z29	X30	Y30	Z30	X31	Y31	Z31	X32	Y32	Z32	X33	Y33	Z33	X34	Y34	Z34	X35	Y35	Z35	X36	Y36	Z36	X37	Y37	Z37	X38	Y38	Z38	X39	Y39	Z39	X40	Y40	Z40	X41	Y41	Z41	X42	Y42	Z42	X43	Y43	Z43	X44	Y44	Z44	X45	Y45	Z45	X46	Y46	Z46	X47	Y47	Z47	X48	Y48	Z48	X49	Y49	Z49	X50	Y50	Z50	X51	Y51	Z51	X52	Y52	Z52	X53	Y53	Z53	X54	Y54	Z54	

66	0.5416666666666667	635.419921875	1432.937377929688	105.9169158935547	471.4635314941406	1532.761962890625	103.3884887695312	512.885986328125	1518.264038085938	267.4290466308593	506.4456481933594	1522.741455078125	-33.76517486572268	668.6489868164062	1275.410278320312	111.7390289306641	390.7461853027344	1314.848876953125	113.1142120361328	585.720703125	1002.369018554688	245.1013488769532	587.3086547851562	1010.532104492188	-29.1897964477539	396.3868103027344	1034.856323242188	166.4398651123047	389.9135131835938	1029.061767578125	62.22785568237303	393.8836669921875	1101.749755859375	103.0766983032226	397.2620544433593	1206.616088867188	365.6558837890625	441.6168518066406	938	396.7793884277344	460.8019714355468	928.3372802734375	347.9263916015625	396.6612548828124	932.8001708984375	396.666748046875	536.2409057617188	1190.280883789062	-166.65087890625	742.0438232421875	1016.203552246094	-192.5359191894531	706.4254150390625	986.2293090820312	-187.1043090820312	761.5926513671875	1025.536254882812	-147.0170288085937	497.6472778320312	831.28857421875	-96.46607971191406	466.9737243652344	603.7544555664062	-42.26051712036131	565.7290649414062	691.8107299804688	-0.7019035220145911	522.6033325195312	499.5810241699219	27.7895603179932	402.8016967773438	370.720703125	-41.16973876953122	316.4111938476562	188.2554473876953	-4.483700275421115	393.2313537597656	264.4012756347656	29.77597427368167	553.5370483398438	812.4559936523438	293.1088562011719	645.9520263671875	594.2380981445312	266.2261657714844	676.1116943359375	760.3137817382812	230.2538299560547	741.8223266601562	553.0411376953125	217.7555541992188	669.1419067382812	436.8700561523438	275.8671875000001	739.6422729492188	192.8852691650391	246.9429931640626	761.770751953125	330.3069152832031	207.0650329589844	699.510498046875	55.71780395507814	192.7276763916016	1002.760314941406	132.7432098388672	217.1582336425782	920.0064697265625	83.7328567504883	163.0491485595704	910.5670166015625	78.95799255371095	276.6804809570314	862.4119873046875	66.29898071289064	267.0173645019532	862.5714721679688	129.4911346435547	210.8565826416017	959.717041015625	100.8441925048828	168.0081329345704	956.0948486328125	102.2134399414063	271.4176025390626	195.7631072998047	74.47019958496094	53.36019134521486	506.9301452636719	52.19164657592773	7.749691963195859	408.656494140625	36.12659454345704	72.02192687988287	398.4376831054688	31.15733528137207	-46.27920150756831	343.7225341796875	32.15483474731445	-31.29292678833004	384.7440795898438	95.02587127685547	23.47600555419926	452.6499328613281	34.28387451171876	62.32874298095709	444.8013000488281	38.28309631347656	-41.31413269042963	0	0	0	393.150146484375	1031.958984375	114.3338623046875	-200	0	-2.449293598294706e-14	-2.449293598294706e-14	1.224646799147353e-14	200	1.499759782661858e-30	200	-1.224646799147353e-14	
67	0.5500000000000002	644.037353515625	1432.101684570312	107.454719543457	479.7642822265625	1531.549438476562	105.3670883178711	521.5261840820312	1516.513916015625	269.3045043945312	514.4732055664062	1522.037353515625	-31.91073799133304	677.6428833007812	1274.621704101562	112.7870254516602	399.6751403808594	1313.368530273438	114.488166809082	596.1245727539062	1001.483154296875	245.3649444580078	596.310791015625	1009.1474609375	-28.47892951965331	406.2745056152344	1033.432983398438	167.7276458740234	399.2434997558594	1027.692260742188	63.64868927001952	403.4226684570312	1100.3203125	104.3713226318359	406.0765991210937	1204.630737304688	367.0188293457031	449.5526428222656	935.8948364257812	397.5831909179688	468.5735168457031	926.2919311523438	348.5260009765625	404.8004760742187	930.84033203125	397.8118286132812	543.3703002929688	1190.129760742188	-166.030990600586	749.5720825195312	1016.023498535156	-192.3995361328125	714.0497436523438	985.9591674804688	-187.1383056640625	769.037841796875	1024.974243164062	-146.599609375	506.0015869140625	830.7740478515625	-94.18498229980469	474.7291870117188	602.5934448242188	-41.6259078979492	574.3670654296875	690.3881225585938	-0.4099272787570673	529.9628295898438	497.4511108398438	27.83525085449222	407.5041198730469	370.1045227050781	-40.41267395019528	319.0557861328125	189.0212249755859	-3.957553148269626	396.9868774414062	264.1788635253906	30.28105163574222	566.7921752929688	811.756591796875	293.1288757324219	656.4701538085938	592.8114624023438	266.4982299804688	688.2984619140625	760.2399291992188	230.0715789794922	750.7141723632812	550.8050537109375	216.9483032226563	677.1378173828125	435.1707153320312	275.2304992675782	744.4005126953125	190.6946258544922	246.1342926025391	768.106201171875	327.569580078125	206.0568237304688	701.8507080078125	56.4642791748047	193.2335357666016	1006.84619140625	124.5884628295899	213.2257385253907	922.3702392578125	77.24548339843751	160.7106323242189	914.7444458007812	74.04297637939455	275.4859924316407	865.4833374023438	61.77016448974611	265.182830810547	866.5513916015625	124.7823715209961	208.6941680908204	962.4053344726562	93.32125854492189	164.9207000732423	960.1251220703125	95.7381057739258	268.3493041992189	196.5966033935547	76.76374816894531	53.61156463623048	507.2074279785156	51.63284683227539	7.616468906402647	408.9797058105469	36.10185241699219	71.94498443603521	398.2790222167969	31.29760932922363	-46.38033676147456	344.5014953613281	32.10914993286133	-30.89091491699215	385.5952758789062	95.61577606201172	23.35006141662602	452.8837585449219	33.98936080932618	62.2383537292481	444.93408203125	38.17379760742188	-41.38951110839838	0	0	0	402.7590026855469	1030.562622070312	115.6881637573242	-200	0	-2.449293598294706e-14	-2.449293598294706e-14	1.224646799147353e-14	200	1.499759782661858e-30	200	-1.224646799147353e-14	
68	0.5583333333333335	652.6400146484375	1431.282592773438	108.7118911743164	488.0282592773438	1530.4521484375	107.3729629516601	530.258056640625	1514.848999023438	271.3361816406249	522.4249877929688	1521.468017578125	-29.97858047485354	686.761474609375	1274.192504882812	113.706787109375	408.6627502441406	1311.992431640625	115.9980850219726	606.6815795898438	1001.055603027344	245.8598785400391	605.2979125976562	1007.705139160156	-27.71582031249999	416.2708129882812	1032.20556640625	169.2694396972656	408.6439819335938	1026.410766601562	65.26894378662109	412.9979858398438	1099.014282226562	105.749282836914	415.2192687988281	1202.6220703125	368.4349670410156	457.8666992187499	933.753173828125	398.3696594238281	476.8625488281249	924.1799926757812	349.3606872558594	413.1076965332031	928.83935546875	398.734619140625	550.969970703125	1189.409057617188	-164.3318328857422	756.6803588867188	1015.75341796875	-192.4008636474609	721.0131225585938	985.8613891601562	-187.53564453125	776.0009765625	1024.328247070312	-146.7160339355468	514.5289916992188	830.26123046875	-91.72654724121094	482.702392578125	601.71142578125	-41.08051681518553	583.0841064453125	689.2129516601562	-0.4018038213252729	538.0668334960938	495.2208862304688	27.89458656311039	413.260009765625	369.7564392089844	-40.13346481323239	321.6876831054688	190.4501953125	-3.20942020416257	400.8000793457031	264.1300964355469	30.10832977294925	580.075439453125	811.3557739257812	292.9823303222656	665.4166870117188	591.134521484375	266.5446472167969	701.0897827148438	759.8323364257812	229.6145935058594	759.3253173828125	548.623779296875	216.2886199951172	684.8464965820312	433.5217590332031	274.7912597656251	750.1104125976562	188.8607635498047	245.9885864257813	774.7609252929688	325.2356567382812	205.5213317871094	704.3589477539062	57.57664871215822	193.7026977539063	1010.8125	116.3344802856445	210.203338623047	924.2990112304688	71.51477050781251	158.6233825683595	918.0557250976562	67.44152069091798	273.0538024902345	868.985107421875	57.17766189575197	263.2961730957032	870.5142822265625	120.0970306396485	207.8674468994142	964.8541870117188	86.57772064208986	162.366424560547	964.233154296875	88.2366180419922	265.833221435547	197.7650756835938	79.71217346191406	54.00217437744142	507.6131286621094	51.07479476928711	7.529133796691953	409.3807983398438	36.18646240234376	71.89607238769537	398.2876281738281	31.37386512756347	-46.41831207275386	343.784912109375	33.23559951782227	-30.56047439575191	386.67138671875	95.86404418945312	23.33123588562016	453.2161254882812	33.78747940063477	62.19187927246099	445.2231140136719	37.99696731567383	-41.43163681030268	0	0	0	412.4573974609375	1029.308227539062	117.2691955566406	-200	0	-2.449293598294706e-14	-2.449293598294706e-14	1.224646799147353e-14	200	1.499759782661858e-30	200	-1.224646799147353e-14	
69	0.5666666666666668	661.2655639648438	1430.707641601562	110.2126007080078	496.3473510742188	1529.4599609375	109.5205535888671	539.0681762695312	1513.291381835938	273.2557678222656	530.250732421875	1521.045776367188	-28.05657386779788	696.0857543945312	1273.887573242188	114.2652206420899	417.8158874511719	1310.701904296875	117.6295700073242	617.434326171875	1000.70361328125	246.2661895751953	614.2469482421875	1006.271362304688	-26.92573356628417	426.41064453125	1031.056518554688	170.8841857910156	418.11962890625	1025.217895507812	67.12693786621094	422.6733703613281	1097.7900390625	107.2470092773437	424.7408447265624	1200.63623046875	369.9796142578125	466.6166381835937	931.5259399414062	399.4232482910156	485.2799377441406	922.027099609375	350.14111328125	421.6907958984374	926.89892578125	399.8312683105469	557.6720581054688	1189.35888671875	-163.4073944091797	763.4033813476562	1015.283264160156	-192.3956451416015	727.669189453125	985.4722900390625	-187.7092132568359	782.7769165039062	1023.524658203125	-146.5847930908203	523.2451782226562	829.7469482421875	-89.11617279052733	491.394775390625	600.747802734375	-40.35424041748045	592.2904052734375	688.2593383789062	-0.2387449890374833	547.6542358398438	492.7696838378906	27.94997596740727	419.2135620117188	369.7573852539062	-39.49483108520505	324.6110534667969	192.2527160644531	-2.85575842857358	405.6500549316406	264.478271484375	30.82100677490238	593.0001831054688	811.6165161132812	292.7777709960938	673.1473388671875	589.4170532226562	266.5294189453125	713.7997436523438	759.0542602539062	229.5271606445313	767.4708251953125	545.9659423828125	215.5310058593751	692.5267333984375	432.0121154785156	274.9153137207032	756.1449584960938	186.9176940917969	246.3593750000001	781.1133422851562	323.110595703125	205.3789215087891	706.6970825195312	58.76410293579103	194.0037384033204	1014.5908203125	107.1997833251953	208.5584259033204	926.2384643554688	65.14981079101564	157.3101959228517	921.0658569335938	61.49324798583986	272.5445556640626	871.845703125	52.311824798584	262.2976684570314	874.4771728515625	115.4944763183594	206.953826904297	967.44775390625	78.97312927246095	160.9476165771486	967.4168701171875	80.58682250976564	264.4169921875001	199.1411437988281	83.36803436279297	54.3466148376465	508.0706787109375	50.68771362304688	7.318209171295226	409.7890014648438	36.2826271057129	71.85831451416021	398.3689880371094	31.48487281799316	-46.54780578613276	344.1573181152344	34.40582656860352	-30.77301597595211	388.42822265625	96.17230987548828	23.71397972106938	453.6615905761719	33.67536163330079	62.05516433715826	445.5519409179688	37.91242218017578	-41.55816268920893	0	0	0	422.26513671875	1028.13720703125	119.0055618286133	-200	0	-2.449293598294706e-14	-2.449293598294706e-14	1.224646799147353e-14	200	1.499759782661858e-30	200	-1.224646799147353e-14	
